<?xml version="1.0" encoding="UTF-8" standalone="no"?>
<!-- Created with Inkscape (http://www.inkscape.org/) -->

<svg
   xmlns:dc="http://purl.org/dc/elements/1.1/"
   xmlns:cc="http://creativecommons.org/ns#"
   xmlns:rdf="http://www.w3.org/1999/02/22-rdf-syntax-ns#"
   xmlns:svg="http://www.w3.org/2000/svg"
   xmlns="http://www.w3.org/2000/svg"
   xmlns:sodipodi="http://sodipodi.sourceforge.net/DTD/sodipodi-0.dtd"
   xmlns:inkscape="http://www.inkscape.org/namespaces/inkscape"
   width="800"
   height="500"
   viewBox="0 0 211.66667 132.29167"
   version="1.1"
   id="svg8"
   inkscape:version="0.92.4 5da689c313, 2019-01-14"
   sodipodi:docname="table-edit-fnl.svg">
  <defs
     id="defs2" />
  <sodipodi:namedview
     id="base"
     pagecolor="#ffffff"
     bordercolor="#666666"
     borderopacity="1.0"
     inkscape:pageopacity="0.0"
     inkscape:pageshadow="2"
     inkscape:zoom="0.76835935"
     inkscape:cx="528.74236"
     inkscape:cy="168.21147"
     inkscape:document-units="mm"
     inkscape:current-layer="layer1"
     showgrid="false"
     units="px"
     inkscape:window-width="1366"
     inkscape:window-height="737"
     inkscape:window-x="0"
     inkscape:window-y="0"
     inkscape:window-maximized="1" />
  <metadata
     id="metadata5">
    <rdf:RDF>
      <cc:Work
         rdf:about="">
        <dc:format>image/svg+xml</dc:format>
        <dc:type
           rdf:resource="http://purl.org/dc/dcmitype/StillImage" />
        <dc:title></dc:title>
      </cc:Work>
    </rdf:RDF>
  </metadata>
  <g
     inkscape:label="Layer 1"
     inkscape:groupmode="layer"
     id="layer1"
     transform="translate(0,-164.70834)">
    <rect
       style="fill:#000000;fill-rule:evenodd;stroke-width:0.08788233"
       id="rect946"
       width="2.5566537"
       height="28.244968"
       x="88.573341"
       y="251.20238"
       ry="0.032532651" />
    <path
       style="opacity:0.906;fill:#000000;fill-opacity:1;stroke:none;stroke-width:1.02526045;stroke-linecap:round;stroke-linejoin:bevel;stroke-miterlimit:4;stroke-dasharray:none;stroke-dashoffset:0;stroke-opacity:1;paint-order:stroke fill markers"
       d="m 29.991454,258.93485 a 7.548224,7.548224 0 0 0 -7.120496,5.06998 0.96847992,0.96847992 0 0 0 -0.620117,-0.22428 0.96847992,0.96847992 0 0 0 -0.339516,0.062 c 0.05765,-0.18827 0.119142,-0.3781 0.187068,-0.57051 l -2.042769,0.0801 c -1.192197,3.46882 0.07421,6.5777 1.279509,8.68681 l 0.72347,-0.68006 c -0.615221,-2.17919 -0.837641,-4.01538 -0.51728,-5.95209 a 0.96847992,0.96847992 0 0 0 0.709518,0.31057 0.96847992,0.96847992 0 0 0 0.243911,-0.0315 7.548224,7.548224 0 0 0 -0.05116,0.79737 7.548224,7.548224 0 0 0 7.547862,7.54786 7.548224,7.548224 0 0 0 7.548374,-7.54786 7.548224,7.548224 0 0 0 -0.14676,-1.44694 c 1.632164,-0.75021 3.32827,-0.733 5.088087,0.0486 a 7.548224,7.548224 0 0 0 -0.13488,1.39837 7.548224,7.548224 0 0 0 7.547874,7.54786 7.548224,7.548224 0 0 0 7.548374,-7.54786 7.548224,7.548224 0 0 0 -0.045,-0.80099 0.96847992,0.96847992 0 0 0 0.25838,0.0351 0.96847992,0.96847992 0 0 0 0.710037,-0.31109 c 0.32048,1.9369 0.098,3.77323 -0.51728,5.95261 l 0.72295,0.68006 c 1.2053,-2.10911 2.47223,-5.21798 1.28003,-8.68681 l -2.04277,-0.0801 c 0.0679,0.19241 0.12942,0.38224 0.18707,0.57051 a 0.96847992,0.96847992 0 0 0 -0.340037,-0.062 0.96847992,0.96847992 0 0 0 -0.635617,0.23823 7.548224,7.548224 0 0 0 -7.126177,-5.08393 7.548224,7.548224 0 0 0 -6.892094,4.48448 c -2.040177,-0.89271 -4.080413,-0.76777 -6.120584,0.005 a 7.548224,7.548224 0 0 0 -6.890019,-4.48913 z m 0,1.70429 a 5.8437861,5.8437861 0 0 1 5.844083,5.84409 5.8437861,5.8437861 0 0 1 -5.844083,5.84357 5.8437861,5.8437861 0 0 1 -5.843572,-5.84357 5.8437861,5.8437861 0 0 1 5.843572,-5.84409 z m 19.902695,0 a 5.8437861,5.8437861 0 0 1 5.844087,5.84409 5.8437861,5.8437861 0 0 1 -5.844087,5.84357 5.8437861,5.8437861 0 0 1 -5.843571,-5.84357 5.8437861,5.8437861 0 0 1 5.843571,-5.84409 z"
       id="path871-5"
       inkscape:connector-curvature="0" />
    <path
       style="fill:#000000;fill-rule:evenodd;stroke-width:0.28252223"
       d="m 47.188343,181.14712 c -2.309314,0 -4.168222,1.85942 -4.168222,4.16874 v 63.63177 c 0,2.30931 1.858908,4.16822 4.168222,4.16822 h 85.326137 c 2.30931,0 4.16874,-1.85891 4.16874,-4.16822 v -63.63177 c 0,-2.30932 -1.85943,-4.16874 -4.16874,-4.16874 z m 1.083138,2.58279 h 83.160379 c 1.74822,0 3.15536,1.40714 3.15536,3.15536 v 60.97974 c 0,1.74822 -1.40714,3.15536 -3.15536,3.15536 H 48.271481 c -1.748222,0 -3.15588,-1.40714 -3.15588,-3.15536 v -60.97974 c 0,-1.74822 1.407658,-3.15536 3.15588,-3.15536 z"
       id="rect834-4"
       inkscape:connector-curvature="0" />
    <rect
       style="fill:#b3b3b3;fill-rule:evenodd;stroke-width:0.2660439"
       id="rect935"
       width="36.012211"
       height="24.34911"
       x="154.58096"
       y="183.55614"
       ry="0.031749498" />
    <path
       style="fill:#000000;fill-rule:evenodd;stroke-width:0.18882836"
       d="m 154.9746,208.9416 c -1.8324,0 -3.30781,1.4749 -3.30781,3.30729 v 65.35364 c 0,1.83239 1.47541,3.30781 3.30781,3.30781 h 35.22523 c 1.8324,0 3.30781,-1.47542 3.30781,-3.30781 v -65.35364 c 0,-1.83239 -1.47541,-3.30729 -3.30781,-3.30729 z m 0.43976,2.58227 h 34.34571 c 0.97249,0 1.75545,0.78296 1.75545,1.75545 v 63.29278 c 0,0.97249 -0.78296,1.75545 -1.75545,1.75545 h -34.34571 c -0.97249,0 -1.75545,-0.78296 -1.75545,-1.75545 v -63.29278 c 0,-0.97249 0.78296,-1.75545 1.75545,-1.75545 z"
       id="rect834-4-7"
       inkscape:connector-curvature="0" />
    <rect
       style="fill:#000000;fill-rule:evenodd;stroke-width:0.069585"
       id="rect946-8"
       width="2.556654"
       height="17.707987"
       x="278.91815"
       y="-98.705666"
       ry="0.020396119"
       transform="rotate(90)" />
    <path
       style="fill:#000000;fill-rule:evenodd;stroke-width:0.22185986"
       d="m 18.307929,274.10527 c -0.01456,0 -0.02636,0.0113 -0.02636,0.0258 v 7.31738 c 0,0.0146 0.01179,0.0264 0.02636,0.0264 h 43.453679 c 0.01456,0 0.02636,-0.0118 0.02636,-0.0264 v -0.59841 c 0,0.0122 -0.01004,0.0222 -0.02222,0.0222 H 21.058666 c -0.01218,0 -0.02222,-0.01 -0.02222,-0.0222 v -6.12056 c 0,-0.0122 0.01004,-0.0217 0.02222,-0.0217 h 40.707075 c 0.01218,0 0.02222,0.01 0.02222,0.0217 v -0.59841 c 0,-0.0146 -0.01179,-0.0258 -0.02636,-0.0258 z"
       id="rect964"
       inkscape:connector-curvature="0" />
    <rect
       style="fill:#b3b3b3;fill-rule:evenodd;stroke-width:0.77205366"
       id="rect984-3"
       width="39.928085"
       height="6.3866782"
       x="20.558018"
       y="274.56586"
       ry="0.019083135" />
    <rect
       style="fill:#000000;fill-rule:evenodd;stroke-width:0.17801394"
       id="rect984"
       width="3.4044201"
       height="3.9822037"
       x="21.815882"
       y="274.56586"
       ry="0.011898662" />
    <rect
       style="fill:#000000;fill-rule:evenodd;stroke-width:0.09737744"
       id="rect984-6-8"
       width="3.4044201"
       height="1.1916043"
       x="21.815882"
       y="280.00458"
       ry="0.0035604646" />
    <rect
       style="fill:#ffffff;fill-rule:evenodd;stroke-width:0.12137704"
       id="rect984-6"
       width="2.6296363"
       height="2.3968236"
       x="22.203272"
       y="277.99182"
       ry="0.0071616117" />
    <path
       style="fill:#b3b3b3;fill-rule:evenodd;stroke-width:0.24151199"
       d="m 117.25237,267.27468 v 10.22676 h 14.60945 v -2.19159 h 3.53777 c 0.48563,0 0.87643,-0.39081 0.87643,-0.87644 v -5.3082 c 0,-0.48563 -0.3908,-0.87643 -0.87643,-0.87643 h -3.53777 v -0.9741 z m 14.60945,1.50688 h 3.39463 c 0.27169,0 0.49041,0.21872 0.49041,0.49041 v 5.0152 c 0,0.27169 -0.21872,0.49041 -0.49041,0.49041 h -3.39463 z m -17.80563,10.13633 c -0.0135,0 -0.0243,0.0108 -0.0243,0.0243 v 2.50838 c 0,0.0135 0.0108,0.0243 0.0243,0.0243 h 23.44353 c 0.0135,0 0.0243,-0.0108 0.0243,-0.0243 v -2.50838 c 0,-0.0135 -0.0108,-0.0243 -0.0243,-0.0243 z"
       id="rect1069"
       inkscape:connector-curvature="0" />
    <rect
       style="fill:#b3b3b3;fill-rule:evenodd;stroke-width:0.23166785"
       id="rect1093-2-1"
       width="28.001478"
       height="1.947929"
       x="58.403717"
       y="195.48608"
       ry="0.97396451" />
    <text
       xml:space="preserve"
       style="font-style:normal;font-weight:normal;font-size:11.28888893px;line-height:1.25;font-family:sans-serif;letter-spacing:0px;word-spacing:0px;fill:#000000;fill-opacity:1;stroke:none;stroke-width:0.26458332"
       x="98.165207"
       y="205.4838"
       id="text1127"><tspan
         sodipodi:role="line"
         id="tspan1125"
         x="98.165207"
         y="205.4838"
         style="font-style:normal;font-variant:normal;font-weight:normal;font-stretch:normal;font-family:'Anonymous Pro Minus';-inkscape-font-specification:'Anonymous Pro Minus';stroke-width:0.26458332">&lt;/&gt;</tspan></text>
    <rect
       style="fill:#b3b3b3;fill-rule:evenodd;stroke-width:0.23166785"
       id="rect1093-2-1-2"
       width="28.001478"
       height="1.947929"
       x="91.440529"
       y="216.15758"
       ry="0.97396451" />
    <rect
       style="fill:#b3b3b3;fill-rule:evenodd;stroke-width:0.23166785"
       id="rect1093-2-1-5"
       width="28.001478"
       height="1.947929"
       x="58.403717"
       y="238.10092"
       ry="0.97396451" />
    <rect
       style="fill:#000000;fill-rule:evenodd;stroke-width:0.26458332"
       id="rect1192"
       width="15.096448"
       height="1.7044377"
       x="97.693947"
       y="226.16708"
       ry="0.85221887" />
    <rect
       style="fill:#000000;fill-rule:evenodd;stroke-width:0.28905633"
       id="rect1192-3"
       width="18.018341"
       height="1.7044377"
       x="97.693947"
       y="229.70287"
       ry="0.85221887" />
    <rect
       style="fill:#000000;fill-rule:evenodd;stroke-width:0.28512341"
       id="rect1192-9"
       width="17.531359"
       height="1.7044377"
       x="97.693947"
       y="233.23865"
       ry="0.85221887" />
    <rect
       style="fill:#000000;fill-rule:evenodd;stroke-width:0.2203438"
       id="rect1192-3-1"
       width="10.470117"
       height="1.7044377"
       x="97.693947"
       y="236.77443"
       ry="0.85221887" />
    <rect
       style="fill:#ffffff;fill-rule:evenodd;stroke-width:0.26458332"
       id="rect1192-96"
       width="15.096448"
       height="1.7044377"
       x="97.693947"
       y="240.31021"
       ry="0.85221887" />
    <rect
       style="fill:#000000;fill-rule:evenodd;stroke-width:0.13854505"
       id="rect1192-3-1-3"
       width="4.139348"
       height="1.7044377"
       x="109.33818"
       y="236.71677"
       ry="0.85221887" />
    <path
       style="fill:#000000;fill-rule:evenodd;stroke-width:0.07491417"
       d="m 75.867942,215.0348 -9.813466,-2.69246 4.433618,5.35349 a 1.509671,1.509671 0 0 1 1.881455,0.36443 1.509671,1.509671 0 0 1 -0.199903,2.12561 1.509671,1.509671 0 0 1 -2.125501,-0.19977 1.509671,1.509671 0 0 1 -0.0068,-1.91535 l -4.50399,-5.43846 0.963342,10.32028 4.510171,1.23748 5.305523,-4.3939 z m 0.503877,5.3973 -0.0088,0.007 -4.734703,3.92116 -0.170354,0.14108 c -0.0046,0.004 -0.0057,0.0113 -0.0017,0.0162 l 2.953239,3.56597 c 0.0038,0.005 0.01112,0.006 0.0162,0.001 l 4.905057,-4.06224 c 0.0046,-0.004 0.0056,-0.0111 0.0015,-0.0161 l -2.953239,-3.56597 c -0.0019,-0.002 -0.004,-0.003 -0.0068,-0.003 z m -10.875322,-8.24293 -0.0049,-10e-4 8.79e-4,0.006 c 0.0013,-0.002 0.0028,-0.003 0.0042,-0.004 z"
       id="rect1254"
       inkscape:connector-curvature="0" />
    <rect
       style="fill:#000000;fill-rule:evenodd;stroke-width:0.26108754"
       id="rect962"
       width="36.012207"
       height="2.5826132"
       x="154.58096"
       y="180.97353"
       ry="0.028045392" />
    <rect
       style="fill:#000000;fill-rule:evenodd;stroke-width:0.23837684"
       id="rect965"
       width="22.088846"
       height="9.8139305"
       x="154.65514"
       y="185.96812"
       ry="0.021080274" />
    <text
       xml:space="preserve"
       style="font-style:normal;font-variant:normal;font-weight:bold;font-stretch:normal;font-size:6.3499999px;line-height:1.25;font-family:'Noto Sans Devanagari UI';-inkscape-font-specification:'Noto Sans Devanagari UI Bold';letter-spacing:0px;word-spacing:0px;fill:#ffffff;fill-opacity:1;stroke:none;stroke-width:0.26458332"
       x="157.11848"
       y="193.42876"
       id="text969"><tspan
         sodipodi:role="line"
         id="tspan967"
         x="157.11848"
         y="193.42876"
         style="font-style:normal;font-variant:normal;font-weight:bold;font-stretch:normal;font-family:'Noto Sans Devanagari UI';-inkscape-font-specification:'Noto Sans Devanagari UI Bold';fill:#ffffff;stroke-width:0.26458332">10</tspan></text>
    <text
       xml:space="preserve"
       style="font-style:normal;font-variant:normal;font-weight:normal;font-stretch:normal;font-size:5.64444447px;line-height:1.25;font-family:sans-serif;-inkscape-font-specification:sans-serif;letter-spacing:0px;word-spacing:0px;fill:#ffffff;fill-opacity:1;stroke:none;stroke-width:0.26458332"
       x="165.38637"
       y="193.45442"
       id="text973"><tspan
         sodipodi:role="line"
         id="tspan971"
         x="165.38637"
         y="193.45442"
         style="font-style:normal;font-variant:normal;font-weight:bold;font-stretch:normal;font-family:'Anonymous Pro Minus';-inkscape-font-specification:'Anonymous Pro Minus Bold';fill:#ffffff;stroke-width:0.26458332">JAN</tspan></text>
    <rect
       style="fill:#ffffff;fill-rule:evenodd;stroke-width:0.15194553"
       id="rect975"
       width="10.65597"
       height="1.1982011"
       x="177.01715"
       y="186.49728"
       ry="0.011099251" />
    <rect
       style="fill:#ffffff;fill-rule:evenodd;stroke-width:0.14483519"
       id="rect975-6"
       width="9.6820059"
       height="1.1982011"
       x="177.01715"
       y="189.10039"
       ry="0.011099251" />
    <rect
       style="fill:#ffffff;fill-rule:evenodd;stroke-width:0.15194553"
       id="rect975-0"
       width="10.65597"
       height="1.1982011"
       x="177.01715"
       y="191.70348"
       ry="0.011099251" />
    <rect
       style="fill:#ffffff;fill-rule:evenodd;stroke-width:0.25025845"
       id="rect975-1"
       width="28.906437"
       height="1.1982011"
       x="157.80481"
       y="196.90967"
       ry="0.011099251" />
    <rect
       style="fill:#ffffff;fill-rule:evenodd;stroke-width:0.24663353"
       id="rect975-6-0"
       width="28.075106"
       height="1.1982011"
       x="157.80481"
       y="199.51279"
       ry="0.011099251" />
    <rect
       style="fill:#ffffff;fill-rule:evenodd;stroke-width:0.171517"
       id="rect975-7"
       width="13.577863"
       height="1.1982011"
       x="173.6427"
       y="205.82892"
       ry="0.011099251" />
    <rect
       style="fill:#b3b3b3;fill-rule:evenodd;stroke-width:0.26458332"
       id="rect1034"
       width="8.2643623"
       height="34.434841"
       x="168.45488"
       y="243.99557"
       ry="0.03365447" />
    <rect
       style="fill:#000000;fill-rule:evenodd;stroke-width:0.05916261"
       id="rect1034-6"
       width="8.2643623"
       height="1.7217406"
       x="168.45488"
       y="230.10316"
       ry="0.0016827221" />
    <rect
       style="fill:#000000;fill-rule:evenodd;stroke-width:0.05916261"
       id="rect1034-6-2"
       width="8.2643623"
       height="1.7217406"
       x="168.45488"
       y="226.92189"
       ry="0.0016827221" />
    <rect
       style="fill:#000000;fill-rule:evenodd;stroke-width:0.05916261"
       id="rect1034-6-4"
       width="8.2643623"
       height="1.7217406"
       x="168.45488"
       y="223.74062"
       ry="0.0016827221" />
    <rect
       style="fill:#ffffff;fill-rule:evenodd;stroke-width:0.161211"
       id="rect975-6-8-7"
       width="11.995172"
       height="1.1982011"
       x="157.80481"
       y="202.11588"
       ry="0.011099251" />
    <rect
       style="fill:#000000;fill-rule:evenodd;stroke-width:0.49700046"
       id="rect975-7-4"
       width="37.854427"
       height="3.60864"
       x="153.54158"
       y="204.7267"
       ry="0.033427779" />
    <rect
       style="fill:#ffffff;fill-rule:evenodd;stroke-width:0.15194553"
       id="rect975-0-9"
       width="10.65597"
       height="1.1982011"
       x="177.01715"
       y="194.30658"
       ry="0.011099251" />
    <text
       xml:space="preserve"
       style="font-style:normal;font-weight:normal;font-size:12.69999981px;line-height:1.25;font-family:sans-serif;letter-spacing:0px;word-spacing:0px;fill:#b3b3b3;fill-opacity:1;stroke:none;stroke-width:0.26458332;"
       x="-245.95563"
       y="27.03096"
       id="text1441"
       transform="rotate(-90)"><tspan
         sodipodi:role="line"
         id="tspan1439"
         x="-245.95563"
         y="27.03096"
         style="font-style:normal;font-variant:normal;font-weight:bold;font-stretch:normal;font-family:'Anonymous Pro Minus';-inkscape-font-specification:'Anonymous Pro Minus Bold';stroke-width:0.26458332;fill:#b3b3b3;">navilindo</tspan></text>
  </g>
</svg>
